<svg width="70" height="72" viewBox="0 0 70 72" fill="none" xmlns="http://www.w3.org/2000/svg">
<path d="M49.798 48.5884C49.798 48.5884 34.6329 72.9311 14.9534 54.3928C-4.72615 35.8545 14.537 26.2229 19.7986 22.6122C25.0601 19.0015 26.4561 3.24223 36.9766 5.81682C47.4807 8.39411 67.2405 25.6694 49.798 48.5884Z" fill="white"/>
<path d="M52.9711 50.9488C52.9711 50.9488 37.806 75.2915 18.1265 56.7532C-1.55305 38.2149 17.7101 28.5834 22.9717 24.9726C28.2332 21.3619 29.6292 5.60264 40.1497 8.17723C50.6538 10.7545 70.4136 28.0298 52.9711 50.9488Z" fill="#C99C64" fill-opacity="0.7"/>
<path d="M45.9375 31H28.0625C26.9252 31 26 31.8411 26 32.875V44.125C26 45.1589 26.9252 46 28.0625 46H45.9375C47.0748 46 48 45.1589 48 44.125V32.875C48 31.8411 47.0748 31 45.9375 31V31ZM45.9375 32.25C46.0309 32.25 46.1198 32.2676 46.201 32.2984L37 39.548L27.799 32.2984C27.8802 32.2677 27.9691 32.25 28.0625 32.25H45.9375ZM45.9375 44.75H28.0625C27.6832 44.75 27.375 44.4698 27.375 44.1249V33.619L36.5495 40.8474C36.6791 40.9493 36.8395 41 37 41C37.1605 41 37.3209 40.9493 37.4505 40.8474L46.625 33.619V44.125C46.625 44.4698 46.3168 44.75 45.9375 44.75V44.75Z" fill="#06736D"/>
<path d="M46.9375 30H29.0625C27.9252 30 27 30.8411 27 31.875V43.125C27 44.1589 27.9252 45 29.0625 45H46.9375C48.0748 45 49 44.1589 49 43.125V31.875C49 30.8411 48.0748 30 46.9375 30V30ZM46.9375 31.25C47.0309 31.25 47.1198 31.2676 47.201 31.2984L38 38.548L28.799 31.2984C28.8802 31.2677 28.9691 31.25 29.0625 31.25H46.9375ZM46.9375 43.75H29.0625C28.6832 43.75 28.375 43.4698 28.375 43.1249V32.619L37.5495 39.8474C37.6791 39.9493 37.8395 40 38 40C38.1605 40 38.3209 39.9493 38.4505 39.8474L47.625 32.619V43.125C47.625 43.4698 47.3168 43.75 46.9375 43.75V43.75Z" fill="#06736D" fill-opacity="0.37"/>
</svg>
