<svg width="70" height="72" viewBox="0 0 70 72" fill="none" xmlns="http://www.w3.org/2000/svg">
<path d="M49.798 48.5884C49.798 48.5884 34.6329 72.9311 14.9534 54.3928C-4.72615 35.8545 14.537 26.2229 19.7986 22.6122C25.0601 19.0015 26.4561 3.24223 36.9766 5.81682C47.4807 8.39411 67.2405 25.6694 49.798 48.5884Z" fill="white"/>
<path d="M52.9711 50.9488C52.9711 50.9488 37.806 75.2915 18.1265 56.7532C-1.55305 38.2149 17.7101 28.5834 22.9717 24.9726C28.2332 21.3619 29.6292 5.60264 40.1497 8.17723C50.6538 10.7545 70.4136 28.0298 52.9711 50.9488Z" fill="#C99C64" fill-opacity="0.7"/>
<g clip-path="url(#clip0)">
<path d="M38.625 33.8333H40.75C40.9456 33.8333 41.1042 33.6747 41.1042 33.4791V31.3541C41.1042 31.1586 40.9456 31 40.75 31H38.625C36.4744 31.0024 34.7315 32.7452 34.7292 34.8958V37.375H32.25C32.0544 37.375 31.8958 37.5336 31.8958 37.7292V39.8542C31.8958 40.0498 32.0544 40.2084 32.25 40.2084H34.7292V47.6459C34.7292 47.8415 34.8877 48 35.0833 48H37.2083C37.4039 48 37.5625 47.8415 37.5625 47.6459V40.2084H40.0417C40.1941 40.2083 40.3293 40.1107 40.3774 39.9661L41.0858 37.8411C41.1476 37.6555 41.0473 37.455 40.8617 37.3932C40.8257 37.3812 40.788 37.375 40.75 37.375H37.5625V34.8958C37.5625 34.309 38.0382 33.8333 38.625 33.8333Z" fill="#06736D"/>
<path d="M40.625 33.8333H42.75C42.9456 33.8333 43.1042 33.6747 43.1042 33.4791V31.3541C43.1042 31.1586 42.9456 31 42.75 31H40.625C38.4744 31.0024 36.7315 32.7452 36.7292 34.8958V37.375H34.25C34.0544 37.375 33.8958 37.5336 33.8958 37.7292V39.8542C33.8958 40.0498 34.0544 40.2084 34.25 40.2084H36.7292V47.6459C36.7292 47.8415 36.8877 48 37.0833 48H39.2083C39.4039 48 39.5625 47.8415 39.5625 47.6459V40.2084H42.0417C42.1941 40.2083 42.3293 40.1107 42.3774 39.9661L43.0858 37.8411C43.1476 37.6555 43.0473 37.455 42.8617 37.3932C42.8257 37.3812 42.788 37.375 42.75 37.375H39.5625V34.8958C39.5625 34.309 40.0382 33.8333 40.625 33.8333Z" fill="#06736D" fill-opacity="0.37"/>
</g>
<defs>
<clipPath id="clip0">
<rect width="17" height="17" fill="white" transform="translate(28 31)"/>
</clipPath>
</defs>
</svg>
