<svg width="70" height="72" viewBox="0 0 70 72" fill="none" xmlns="http://www.w3.org/2000/svg">
<path d="M49.798 48.5884C49.798 48.5884 34.6329 72.9311 14.9534 54.3928C-4.72615 35.8545 14.537 26.2229 19.7986 22.6122C25.0601 19.0015 26.4561 3.24223 36.9766 5.81682C47.4807 8.39411 67.2405 25.6694 49.798 48.5884Z" fill="white"/>
<path d="M52.9711 50.9488C52.9711 50.9488 37.806 75.2915 18.1265 56.7532C-1.55305 38.2149 17.7101 28.5834 22.9717 24.9726C28.2332 21.3619 29.6292 5.60265 40.1497 8.17724C50.6538 10.7545 70.4136 28.0298 52.9711 50.9488Z" fill="#C99C64" fill-opacity="0.7"/>
<path d="M46.9543 34.2921C46.9121 33.3357 46.7574 32.6781 46.5358 32.1084C46.3072 31.5036 45.9555 30.9621 45.4947 30.512C45.0445 30.0549 44.4994 29.6997 43.9015 29.4747C43.3283 29.2531 42.6741 29.0985 41.7175 29.0563C40.7538 29.0106 40.4478 29 38.0035 29C35.5592 29 35.2532 29.0106 34.2931 29.0527C33.3365 29.0949 32.6788 29.2497 32.1091 29.4711C31.5041 29.6997 30.9625 30.0513 30.5123 30.512C30.0551 30.9621 29.7 31.5072 29.4748 32.1049C29.2532 32.6781 29.0985 33.3321 29.0563 34.2885C29.0106 35.252 29 35.5579 29 38.0018C29 40.4456 29.0106 40.7515 29.0528 41.7115C29.0949 42.6679 29.2498 43.3254 29.4714 43.8952C29.7 44.5 30.0551 45.0414 30.5123 45.4916C30.9625 45.9487 31.5076 46.3039 32.1055 46.5289C32.6788 46.7504 33.3329 46.9051 34.2896 46.9473C35.2497 46.9896 35.5558 47 38.0001 47C40.4444 47 40.7503 46.9896 41.7105 46.9473C42.6671 46.9051 43.3247 46.7504 43.8945 46.5289C45.1044 46.0612 46.061 45.1048 46.5288 43.8952C46.7502 43.322 46.9051 42.6679 46.9472 41.7115C46.9894 40.7515 47 40.4456 47 38.0018C47 35.5579 46.9964 35.252 46.9543 34.2921ZM45.333 41.6412C45.2943 42.5203 45.1466 42.995 45.0235 43.3114C44.721 44.0956 44.0985 44.718 43.3142 45.0204C42.9976 45.1435 42.5194 45.2911 41.6436 45.3297C40.694 45.3721 40.4092 45.3825 38.0071 45.3825C35.6049 45.3825 35.3166 45.3721 34.3704 45.3297C33.4912 45.2911 33.0164 45.1435 32.6998 45.0204C32.3095 44.8762 31.9543 44.6476 31.6659 44.3487C31.367 44.0569 31.1384 43.7052 30.9941 43.315C30.871 42.9985 30.7233 42.5203 30.6847 41.6448C30.6424 40.6953 30.632 40.4105 30.632 38.0088C30.632 35.6071 30.6424 35.3188 30.6847 34.373C30.7233 33.4939 30.871 33.0192 30.9941 32.7027C31.1384 32.3123 31.367 31.9573 31.6695 31.6688C31.9613 31.3699 32.313 31.1414 32.7034 30.9973C33.02 30.8742 33.4983 30.7266 34.374 30.6878C35.3236 30.6457 35.6085 30.6351 38.0105 30.6351C40.4162 30.6351 40.701 30.6457 41.6472 30.6878C42.5264 30.7266 43.0012 30.8742 43.3177 30.9973C43.708 31.1414 44.0633 31.3699 44.3517 31.6688C44.6506 31.9607 44.8792 32.3123 45.0235 32.7027C45.1466 33.0192 45.2943 33.4973 45.333 34.373C45.3752 35.3224 45.3858 35.6071 45.3858 38.0088C45.3858 40.4105 45.3752 40.6918 45.333 41.6412Z" fill="#06736D"/>
<path d="M38 33C35.2396 33 33 35.2395 33 38C33 40.7605 35.2396 43 38 43C40.7605 43 43 40.7605 43 38C43 35.2395 40.7605 33 38 33ZM38 41.2434C36.2092 41.2434 34.7566 39.7909 34.7566 38C34.7566 36.2091 36.2092 34.7566 38 34.7566C39.7909 34.7566 41.2434 36.2091 41.2434 38C41.2434 39.7909 39.7909 41.2434 38 41.2434V41.2434Z" fill="#06736D"/>
<path d="M44 33C44 33.5522 43.5523 34 42.9999 34C42.4477 34 42 33.5522 42 33C42 32.4476 42.4477 32 42.9999 32C43.5523 32 44 32.4476 44 33V33Z" fill="#06736D"/>
<path d="M47.9543 33.2921C47.9121 32.3357 47.7574 31.6781 47.5358 31.1084C47.3072 30.5036 46.9555 29.9621 46.4947 29.512C46.0445 29.0549 45.4994 28.6997 44.9015 28.4747C44.3283 28.2531 43.6741 28.0985 42.7175 28.0563C41.7538 28.0106 41.4478 28 39.0035 28C36.5592 28 36.2532 28.0106 35.2931 28.0527C34.3365 28.0949 33.6788 28.2497 33.1091 28.4711C32.5041 28.6997 31.9625 29.0513 31.5123 29.512C31.0551 29.9621 30.7 30.5072 30.4748 31.1049C30.2532 31.6781 30.0985 32.3321 30.0563 33.2885C30.0106 34.252 30 34.5579 30 37.0018C30 39.4456 30.0106 39.7515 30.0528 40.7115C30.0949 41.6679 30.2498 42.3254 30.4714 42.8952C30.7 43.5 31.0551 44.0414 31.5123 44.4916C31.9625 44.9487 32.5076 45.3039 33.1055 45.5289C33.6788 45.7504 34.3329 45.9051 35.2896 45.9473C36.2497 45.9896 36.5558 46 39.0001 46C41.4444 46 41.7503 45.9896 42.7105 45.9473C43.6671 45.9051 44.3247 45.7504 44.8945 45.5289C46.1044 45.0612 47.061 44.1048 47.5288 42.8952C47.7502 42.322 47.9051 41.6679 47.9472 40.7115C47.9894 39.7515 48 39.4456 48 37.0018C48 34.5579 47.9964 34.252 47.9543 33.2921ZM46.333 40.6412C46.2943 41.5203 46.1466 41.995 46.0235 42.3114C45.721 43.0956 45.0985 43.718 44.3142 44.0204C43.9976 44.1435 43.5194 44.2911 42.6436 44.3297C41.694 44.3721 41.4092 44.3825 39.0071 44.3825C36.6049 44.3825 36.3166 44.3721 35.3704 44.3297C34.4912 44.2911 34.0164 44.1435 33.6998 44.0204C33.3095 43.8762 32.9543 43.6476 32.6659 43.3487C32.367 43.0569 32.1384 42.7052 31.9941 42.315C31.871 41.9985 31.7233 41.5203 31.6847 40.6448C31.6424 39.6953 31.632 39.4105 31.632 37.0088C31.632 34.6071 31.6424 34.3188 31.6847 33.373C31.7233 32.4939 31.871 32.0192 31.9941 31.7027C32.1384 31.3123 32.367 30.9573 32.6695 30.6688C32.9613 30.3699 33.313 30.1414 33.7034 29.9973C34.02 29.8742 34.4983 29.7266 35.374 29.6878C36.3236 29.6457 36.6085 29.6351 39.0105 29.6351C41.4162 29.6351 41.701 29.6457 42.6472 29.6878C43.5264 29.7266 44.0012 29.8742 44.3177 29.9973C44.708 30.1414 45.0633 30.3699 45.3517 30.6688C45.6506 30.9607 45.8792 31.3123 46.0235 31.7027C46.1466 32.0192 46.2943 32.4973 46.333 33.373C46.3752 34.3224 46.3858 34.6071 46.3858 37.0088C46.3858 39.4105 46.3752 39.6918 46.333 40.6412Z" fill="#06736D" fill-opacity="0.37"/>
<path d="M39 32C36.2396 32 34 34.2395 34 37C34 39.7605 36.2396 42 39 42C41.7605 42 44 39.7605 44 37C44 34.2395 41.7605 32 39 32ZM39 40.2434C37.2092 40.2434 35.7566 38.7909 35.7566 37C35.7566 35.2091 37.2092 33.7566 39 33.7566C40.7909 33.7566 42.2434 35.2091 42.2434 37C42.2434 38.7909 40.7909 40.2434 39 40.2434V40.2434Z" fill="#06736D" fill-opacity="0.37"/>
<path d="M46 31.5C46 32.3283 45.3284 33 44.4999 33C43.6716 33 43 32.3283 43 31.5C43 30.6715 43.6716 30 44.4999 30C45.3284 30 46 30.6715 46 31.5V31.5Z" fill="#06736D" fill-opacity="0.37"/>
</svg>
