<svg width="70" height="72" viewBox="0 0 70 72" fill="none" xmlns="http://www.w3.org/2000/svg">
<path d="M49.798 48.5884C49.798 48.5884 34.6329 72.9311 14.9534 54.3928C-4.72615 35.8545 14.537 26.2229 19.7986 22.6122C25.0601 19.0015 26.4561 3.24223 36.9766 5.81682C47.4807 8.39411 67.2405 25.6694 49.798 48.5884Z" fill="white"/>
<path d="M52.9711 50.9488C52.9711 50.9488 37.806 75.2915 18.1265 56.7532C-1.55305 38.2149 17.7101 28.5834 22.9717 24.9726C28.2332 21.3619 29.6292 5.60264 40.1497 8.17723C50.6538 10.7545 70.4136 28.0298 52.9711 50.9488Z" fill="#C99C64" fill-opacity="0.7"/>
<path d="M40.5853 41.8007L43.0228 32.1093H45.1907L41.4993 44.789H39.7415L36.6595 35.1796L33.6595 44.789H31.9017L28.222 32.1093H30.3782L32.8743 41.6015L35.8275 32.1093H37.5735L40.5853 41.8007Z" fill="#06736D"/>
<path d="M42.5853 41.8007L45.0228 32.1093H47.1907L43.4993 44.789H41.7415L38.6595 35.1796L35.6595 44.789H33.9017L30.222 32.1093H32.3782L34.8743 41.6015L37.8275 32.1093H39.5735L42.5853 41.8007Z" fill="#06736D" fill-opacity="0.37"/>
</svg>
